<svg xmlns="http://www.w3.org/2000/svg" width="24" height="24" viewBox="0 0 24 24">
    <g fill="#FFF" fill-rule="nonzero">
        <path d="M8.188 21.248a9.929 9.929 0 0 1-.036-.015L12 18.004V21a9 9 0 0 0 5.034-16.462l.793-.666A9.987 9.987 0 0 1 22 12c0 5.523-4.477 10-10 10a9.97 9.97 0 0 1-3.812-.752zm7.624-18.496l.036.015L12 5.996V3a9 9 0 0 0-5.034 16.462l-.793.666A9.987 9.987 0 0 1 2 12C2 6.477 6.477 2 12 2a9.97 9.97 0 0 1 3.812.752z"/>
        <path d="M10.996 14.253c.004-.65.08-1.114.225-1.393.145-.28.467-.63.967-1.052.354-.345.635-.676.844-.991.209-.316.313-.664.313-1.045 0-.44-.119-.782-.357-1.025-.239-.243-.578-.365-1.018-.365-.377 0-.697.104-.96.31-.264.207-.396.512-.396.916H9.021L9 9.568c-.014-.809.257-1.439.813-1.89C10.37 7.226 11.09 7 11.97 7c.953 0 1.696.243 2.23.729.533.485.8 1.16.8 2.022 0 .577-.167 1.111-.5 1.604a6.197 6.197 0 0 1-1.264 1.352c-.259.227-.42.442-.487.647-.065.204-.098.504-.098.899h-1.655zm1.682 2.805h-1.689v-1.586h1.689v1.586z"/>
    </g>
</svg>
