<?xml version="1.0" encoding="utf-8"?>
<!-- Generator: Adobe Illustrator 16.0.0, SVG Export Plug-In . SVG Version: 6.00 Build 0)  -->
<!DOCTYPE svg PUBLIC "-//W3C//DTD SVG 1.1//EN" "http://www.w3.org/Graphics/SVG/1.1/DTD/svg11.dtd">
<svg version="1.1" id="Layer_1" xmlns="http://www.w3.org/2000/svg" xmlns:xlink="http://www.w3.org/1999/xlink" x="0px" y="0px"
	 width="209.76px" height="209.76px" viewBox="0 0 209.76 209.76" enable-background="new 0 0 209.76 209.76" xml:space="preserve">
<g>
	<path fill="#F7F7F7" d="M204.68,140.723c0,9.422-5.82,20.203-13.977,28.723c-22.828,24.738-85.303,39.316-85.303,39.316V1.721
		l99.279,40.072V140.723z"/>
	<path fill="#E7E7E7" d="M6.137,140.723c0,9.422,5.82,20.203,13.977,28.723c22.828,24.738,85.303,39.316,85.303,39.316V1.721
		L6.137,41.793V140.723z"/>
</g>
<path fill="#999999" d="M105.459,4.98l96.221,38.837v96.905c0,8.09-4.913,18.051-13.144,26.648l-0.019,0.02l-0.02,0.02
	c-20.611,22.338-76.297,36.59-83.09,38.263C98.615,204,42.93,189.748,22.318,167.41l-0.02-0.02l-0.019-0.02
	c-8.23-8.598-13.144-18.559-13.144-26.648V43.817L105.357,4.98l0.051,0.021L105.459,4.98 M105.416,1.721l-0.008,0.004L105.4,1.721
	v0.007L6.137,41.793v98.93c0,9.422,5.82,20.203,13.977,28.723c22.705,24.605,84.621,39.156,85.287,39.313v0.004l0.008-0.002
	c0.001,0,0.008,0.002,0.008,0.002v-0.004c0.666-0.156,62.582-14.707,85.287-39.313c8.156-8.52,13.977-19.301,13.977-28.723v-98.93
	L105.416,1.728V1.721L105.416,1.721z"/>
<path fill="#7191CA" d="M185.501,133.867c0,7.602-4.696,16.301-11.275,23.174c-18.418,19.959-68.822,31.721-68.822,31.721V21.721
	l80.098,32.33V133.867z"/>
<path fill="#3B54A5" d="M25.316,133.867c0,7.602,4.696,16.301,11.275,23.174c18.418,19.959,68.823,31.721,68.823,31.721V21.721
	l-80.099,32.33V133.867z"/>
<circle fill="#FFFFFF" cx="105.625" cy="67.49" r="15"/>
<rect x="93.267" y="91.99" fill="#FFFFFF" width="25.5" height="68.5"/>
</svg>
