<?xml version="1.0" encoding="utf-8"?>
<!-- Generator: Adobe Illustrator 16.0.0, SVG Export Plug-In . SVG Version: 6.00 Build 0)  -->
<!DOCTYPE svg PUBLIC "-//W3C//DTD SVG 1.1//EN" "http://www.w3.org/Graphics/SVG/1.1/DTD/svg11.dtd">
<svg version="1.1" id="Layer_1" xmlns="http://www.w3.org/2000/svg" xmlns:xlink="http://www.w3.org/1999/xlink" x="0px" y="0px"
	 width="209.76px" height="209.76px" viewBox="0 0 209.76 209.76" enable-background="new 0 0 209.76 209.76" xml:space="preserve">
<g>
	<g>
		<path fill="#F7F7F7" d="M204.17,140.732c0,9.422-5.82,20.203-13.977,28.723c-22.828,24.738-85.303,39.316-85.303,39.316V1.73
			l99.279,40.072V140.732z"/>
		<path fill="#E7E7E7" d="M5.627,140.732c0,9.422,5.82,20.203,13.977,28.723c22.828,24.738,85.303,39.316,85.303,39.316V1.73
			L5.627,41.803V140.732z"/>
	</g>
	<path fill="#999999" d="M104.949,4.99l96.221,38.837v96.905c0,8.09-4.913,18.051-13.144,26.648l-0.019,0.02l-0.02,0.02
		c-20.611,22.338-76.297,36.59-83.09,38.263c-6.793-1.673-62.479-15.925-83.09-38.263l-0.02-0.02l-0.019-0.02
		c-8.23-8.598-13.144-18.559-13.144-26.648V43.827L104.848,4.99l0.051,0.021L104.949,4.99 M104.906,1.73l-0.008,0.004l-0.008-0.004
		v0.007L5.627,41.803v98.93c0,9.422,5.82,20.203,13.977,28.723c22.705,24.605,84.621,39.156,85.287,39.313v0.004l0.008-0.002
		c0.001,0,0.008,0.002,0.008,0.002v-0.004c0.666-0.156,62.582-14.707,85.287-39.313c8.156-8.52,13.977-19.301,13.977-28.723v-98.93
		L104.906,1.737V1.73L104.906,1.73z"/>
	<g>
		<path fill="#B0AFB0" d="M184.991,133.877c0,7.602-4.696,16.301-11.275,23.174c-18.418,19.959-68.822,31.721-68.822,31.721V21.73
			l80.098,32.33V133.877z"/>
		<path fill="#828282" d="M24.807,133.877c0,7.602,4.696,16.301,11.275,23.174c18.418,19.959,68.823,31.721,68.823,31.721V21.73
			l-80.099,32.33V133.877z"/>
	</g>
	<g>
		<rect x="93.775" y="135.977" fill="#FFFFFF" width="22.758" height="22.768"/>
		<path fill="#FFFFFF" d="M104.898,49.78c-18.023,0-32.684,14.68-32.684,32.723v4.266h22.723v-4.266
			c0-5.495,4.469-9.965,9.961-9.965s9.961,4.47,9.961,9.965c0,1.718-0.332,4.848-2.553,6.504l-0.318,0.237l-8.652,9.392
			c-6.332,5.612-9.816,13.746-9.816,22.935v7.805h22.758v-4.266c0-9.041,2.084-12.318,7.072-16.667l6.598-6.584l0.268-0.292
			c4.752-5.724,7.369-12.494,7.369-19.063C137.584,64.46,122.92,49.78,104.898,49.78z"/>
	</g>
</g>
</svg>
