<?xml version="1.0" encoding="utf-8"?>
<!-- Generator: Adobe Illustrator 16.0.0, SVG Export Plug-In . SVG Version: 6.00 Build 0)  -->
<!DOCTYPE svg PUBLIC "-//W3C//DTD SVG 1.1//EN" "http://www.w3.org/Graphics/SVG/1.1/DTD/svg11.dtd">
<svg version="1.1" id="Layer_1" xmlns="http://www.w3.org/2000/svg" xmlns:xlink="http://www.w3.org/1999/xlink" x="0px" y="0px"
	 width="209.76px" height="209.76px" viewBox="0 0 209.76 209.76" enable-background="new 0 0 209.76 209.76" xml:space="preserve">
<g>
	<path fill="#F7F7F7" d="M204.17,140.773c0,9.422-5.82,20.203-13.977,28.723c-22.828,24.738-85.303,39.316-85.303,39.316V1.772
		l99.279,40.072V140.773z"/>
	<path fill="#E7E7E7" d="M5.627,140.773c0,9.422,5.82,20.203,13.977,28.723c22.828,24.738,85.303,39.316,85.303,39.316V1.772
		L5.627,41.844V140.773z"/>
</g>
<path fill="#999999" d="M104.949,5.032l96.221,38.837v96.905c0,8.09-4.913,18.051-13.144,26.648l-0.019,0.02l-0.02,0.02
	c-20.611,22.338-76.297,36.59-83.09,38.264c-6.793-1.674-62.479-15.926-83.09-38.264l-0.02-0.02l-0.019-0.02
	c-8.23-8.598-13.144-18.559-13.144-26.648V43.869l96.221-38.837l0.051,0.021L104.949,5.032 M104.906,1.772l-0.008,0.004
	l-0.008-0.004v0.007L5.627,41.844v98.929c0,9.422,5.82,20.203,13.977,28.723c22.705,24.605,84.621,39.156,85.287,39.313v0.004
	l0.008-0.002c0.001,0,0.008,0.002,0.008,0.002v-0.004c0.666-0.156,62.582-14.707,85.287-39.313
	c8.156-8.52,13.977-19.301,13.977-28.723V41.844L104.906,1.779V1.772L104.906,1.772z"/>
<path fill="#F2D68F" d="M184.991,133.918c0,7.602-4.696,16.301-11.275,23.174c-18.418,19.959-68.822,31.721-68.822,31.721V21.772
	l80.098,32.33V133.918z"/>
<path fill="#F6B11A" d="M24.807,133.918c0,7.602,4.696,16.301,11.275,23.174c18.418,19.959,68.823,31.721,68.823,31.721V21.772
	l-80.099,32.33V133.918z"/>
<g>
	<polygon fill="#FFFFFF" points="148.492,79.833 132.215,62.881 105.008,89.002 104.99,88.985 104.99,121.599 105.008,121.582 
		132.217,147.704 148.492,130.752 121.975,105.292 	"/>
	<polygon fill="#FFFFFF" points="77.801,62.881 61.523,79.833 88.041,105.292 61.523,130.752 77.799,147.704 104.99,121.599 
		104.99,88.985 	"/>
</g>
</svg>
