<svg xmlns="http://www.w3.org/2000/svg" width="24" height="24" viewBox="0 0 24 24">
    <g fill="#FFF" fill-rule="evenodd">
        <path fill-rule="nonzero" d="M8.188 21.248a9.929 9.929 0 0 1-.036-.015L12 18.004V21a9 9 0 0 0 5.034-16.462l.793-.666A9.987 9.987 0 0 1 22 12c0 5.523-4.477 10-10 10a9.97 9.97 0 0 1-3.812-.752zm7.624-18.496l.036.015L12 5.996V3a9 9 0 0 0-5.034 16.462l-.793.666A9.987 9.987 0 0 1 2 12C2 6.477 6.477 2 12 2a9.97 9.97 0 0 1 3.812.752z"/>
        <path d="M16 8l.879.879-6.44 6.45L7 11.878 7.879 11l2.56 2.55z"/>
    </g>
</svg>
