<svg xmlns="http://www.w3.org/2000/svg" width="24" height="24" viewBox="0 0 24 24">
    <g fill="#FFF" fill-rule="nonzero">
        <path d="M8.188 21.248a9.929 9.929 0 0 1-.036-.015L12 18.004V21a9 9 0 0 0 5.034-16.462l.793-.666A9.987 9.987 0 0 1 22 12c0 5.523-4.477 10-10 10a9.97 9.97 0 0 1-3.812-.752zm7.624-18.496l.036.015L12 5.996V3a9 9 0 0 0-5.034 16.462l-.793.666A9.987 9.987 0 0 1 2 12C2 6.477 6.477 2 12 2a9.97 9.97 0 0 1 3.812.752z"/>
        <path d="M14.16 13.453l2.376 2.375-.708.708-2.375-2.376a4 4 0 1 1 .707-.707zM11 14a3 3 0 1 0 0-6 3 3 0 0 0 0 6z"/>
    </g>
</svg>
