<?xml version="1.0" encoding="utf-8"?>
<!-- Generator: Adobe Illustrator 16.0.0, SVG Export Plug-In . SVG Version: 6.00 Build 0)  -->
<!DOCTYPE svg PUBLIC "-//W3C//DTD SVG 1.1//EN" "http://www.w3.org/Graphics/SVG/1.1/DTD/svg11.dtd">
<svg version="1.1" id="Layer_1" xmlns="http://www.w3.org/2000/svg" xmlns:xlink="http://www.w3.org/1999/xlink" x="0px" y="0px"
	 width="209.76px" height="209.76px" viewBox="0 0 209.76 209.76" enable-background="new 0 0 209.76 209.76" xml:space="preserve">
<g>
	<path fill="#F7F7F7" d="M204.68,140.773c0,9.423-5.82,20.204-13.977,28.724c-22.828,24.738-85.303,39.316-85.303,39.316V1.772
		l99.279,40.072V140.773z"/>
	<path fill="#E7E7E7" d="M6.137,140.773c0,9.423,5.82,20.204,13.977,28.724c22.828,24.738,85.303,39.316,85.303,39.316V1.772
		L6.137,41.844V140.773z"/>
</g>
<path fill="#999999" d="M105.459,5.031l96.221,38.837v96.905c0,8.09-4.913,18.052-13.144,26.648l-0.019,0.02l-0.02,0.021
	c-20.611,22.337-76.297,36.59-83.09,38.263c-6.793-1.673-62.479-15.926-83.09-38.263l-0.02-0.021l-0.019-0.02
	c-8.23-8.597-13.144-18.559-13.144-26.648V43.869l96.221-38.837l0.051,0.022L105.459,5.031 M105.416,1.772l-0.008,0.003L105.4,1.772
	v0.006L6.137,41.844v98.929c0,9.422,5.82,20.203,13.977,28.723c22.705,24.605,84.621,39.156,85.287,39.313v0.004l0.008-0.002
	c0.001,0,0.008,0.002,0.008,0.002v-0.004c0.666-0.156,62.582-14.707,85.287-39.313c8.156-8.52,13.977-19.301,13.977-28.723V41.844
	L105.416,1.779V1.772L105.416,1.772z"/>
<path fill="#EA7575" d="M185.501,133.919c0,7.602-4.696,16.301-11.275,23.174c-18.418,19.959-68.822,31.721-68.822,31.721V21.772
	l80.098,32.33V133.919z"/>
<path fill="#E33D3D" d="M25.316,133.919c0,7.602,4.696,16.301,11.275,23.174c18.418,19.959,68.823,31.721,68.823,31.721V21.772
	l-80.099,32.33V133.919z"/>
<polygon fill="#E7E7E7" points="105,105.5 105,17.5 20,52.5 20,105.5 "/>
</svg>
