<svg xmlns="http://www.w3.org/2000/svg" width="24" height="24" viewBox="0 0 24 24">
    <g fill="none" fill-rule="evenodd" transform="translate(2 2)">
        <path fill="#FFF" fill-rule="nonzero" d="M6.188 19.248a9.929 9.929 0 0 1-.036-.015L10 16.004V19a9 9 0 0 0 5.034-16.462l.793-.666A9.987 9.987 0 0 1 20 10c0 5.523-4.477 10-10 10a9.97 9.97 0 0 1-3.812-.752zM13.812.752l.036.015L10 3.996V1a9 9 0 0 0-5.034 16.462l-.793.666A9.987 9.987 0 0 1 0 10C0 4.477 4.477 0 10 0a9.97 9.97 0 0 1 3.812.752z"/>
        <circle cx="17" cy="5" r="4" fill="#D0021B"/>
    </g>
</svg>
